<?xml version="1.0" encoding="UTF-8"?>
<svg width="752pt" height="752pt" version="1.1" viewBox="0 0 752 752" xmlns="http://www.w3.org/2000/svg">
 <g fill-rule="evenodd">
  <path d="m266.07 176.94c0.625 5.7891-0.80469 9.5195-6.6367 8.8516-0.625-5.7891 0.80469-9.5234 6.6367-8.8516z"/>
  <path d="m418.75 176.94h8.8555c2.582 7.6758-12.371 10.285-8.8555 0z"/>
  <path d="m288.2 188c5.8242-0.66406 7.2617 3.0664 6.6367 8.8516h-8.8516c-0.92969-4.625 1.5195-5.8555 2.2148-8.8516z"/>
  <path d="m520.53 190.21h6.6406v8.8516h-8.8555c-0.27344-3.9688 2.7109-4.6641 2.2148-8.8516z"/>
  <path d="m334.67 196.85h6.6406c0.57812 7.2148-2.6328 10.648-8.8555 11.066-0.70703-5.1328 0.35938-8.4922 2.2148-11.066z"/>
  <path d="m560.36 199.07h6.6406v8.8516c-7.3906 2.2188-7.2578-3.0703-6.6406-8.8516z"/>
  <path d="m305.9 201.28c5.6367 0.22266 5.2305 8.2461 2.2148 11.062-9.0586 1.2148-7.4844-9.5586-2.2148-11.062z"/>
  <path d="m387.77 207.92c3.8867 0.53125 5.0508 3.8047 4.4258 8.8516h-6.6367c-0.92969-4.6289 1.5195-5.8594 2.2109-8.8516z"/>
  <path d="m263.86 269.87c-42.875 9.9922-50.285-35.27-28.762-53.105 12.461 2.6992 42.516-9.9961 48.672 13.277 4.2656 16.109-7.5469 30.273-19.91 39.828zm-24.34-11.059c8.3711 5.3984 17.977 3.7734 28.766 2.2109 7.2148-6.2109 14.793-28.91 2.2109-35.402 9.1992 23.539-19.113 23.84-30.977 33.191z"/>
  <path d="m199.69 223.4c1.0156 6.9141-4.7266 7.0781-11.062 6.6406v-6.6406c2.9062-2.8398 8.1602-2.8398 11.062 0z"/>
  <path d="m498.41 223.4h6.6367c0.089843 6.7305 1.293 14.566-6.6367 13.277-3.0273-2.832-3.0273-10.445 0-13.277z"/>
  <path d="m432.02 236.68c-0.29297 22.07-0.58594 39.355-2.2188 55.324-27.727-3.4141-51.348 12.496-48.672 46.465 11.676 0.33203 27.664-0.30859 42.039-2.2148 1.6406 16.855-6.0352 32.113 0 46.469-5.6562 9.8242-21.23 9.7305-37.609 8.8555-3.0586 6.4023-5.0586 27.836 2.2109 30.973-10.113 9.125-7.582 40.008-4.4258 55.324-11.914 11.684-38.922 8.2773-57.531 13.277-9.8203-28.832-9.7227-68.086-8.8516-101.79-9.6445-3.7148-23.867 5.0742-37.617 4.4297-3.332-15.848-3.2578-35.098-4.4219-53.109 19.836-4.8984 26.363 1.5938 44.25-4.4258 0.86719-69.949 41.664-99.957 112.85-99.578zm-101.78 101.79c-6.0547 12.387-30.289 6.5938-44.254 11.062-1.3047 12.891 2.1484 25.98 0 33.191 15.605 1.5938 23.055-4.9727 37.617-4.4258 4.9453 32.672-1.5781 76.805 13.277 99.574 6.1602 1.5586 25.668-0.21094 35.398-2.2188-2.6328-29.66 0.49609-62.25 2.2148-90.711 13.52 0.23828 25.117-1.4258 35.398-4.4297 4.4531-6.6094 1.2578-20.875 2.2188-30.977-12.141-6.8516-29.82 5.0586-42.043-2.2109-0.69531-39.051 14.555-62.156 50.891-64.172-0.015626-16.145 0.49609-25.375 2.2109-35.402-58.535-7.0234-100.77 31.414-92.93 90.719z"/>
  <path d="m341.3 241.11h4.4219c-0.40625 1.8789 0.86328 2.082 2.2148 2.2109v4.4258c-1.8828-0.40625-2.082 0.86328-2.2148 2.2109h-4.4219c0.40625-1.8789-0.86328-2.082-2.2148-2.2109v-4.4258c1.8867 0.41016 2.0859-0.86328 2.2148-2.2109z"/>
  <path d="m467.43 245.54h8.8438c0.94531 4.625-1.5117 5.8516-2.2031 8.8516-5.8359 0.66406-7.2617-3.0703-6.6406-8.8516z"/>
  <path d="m487.34 263.23v6.6406c-3.9258-0.50391-11.086 2.2266-8.8594-4.4258 1.9766-1.7188 5.0039-2.3789 8.8594-2.2148z"/>
  <path d="m288.2 272.09c11.793-1.3672 10.207 12.594-2.2148 8.8516-0.92969-4.625 1.5195-5.8633 2.2148-8.8516z"/>
  <path d="m449.72 274.3c4 3.8008-0.68359 8.7031-6.6406 8.8516-0.61719-5.7852 0.80859-9.5156 6.6406-8.8516z"/>
  <path d="m509.46 283.15h6.6406c0.94141 4.625-1.5117 5.8555-2.2031 8.8555-3.8945-0.53516-5.0469-3.8086-4.4375-8.8555z"/>
  <path d="m536.02 300.85v6.6406c-3.9258-0.50391-11.07 2.2305-8.8516-4.4258 1.9688-1.7188 5.0039-2.375 8.8516-2.2148z"/>
  <path d="m224.04 305.28c3.5742-0.625 3.8086 2.082 6.6367 2.2109 0.66406 5.832-3.0625 7.2617-8.8438 6.6367-0.94531-4.6289 1.5078-5.8672 2.207-8.8477z"/>
  <path d="m299.27 305.28c1.0273 6.9258-1.9258 9.875-8.8516 8.8438-1.0312-6.9258 1.9219-9.875 8.8516-8.8438z"/>
  <path d="m398.83 305.28c6.6562-2.2305 3.9219 4.9258 4.4219 8.8438h-6.6367c-0.9375-4.625 1.5273-5.8633 2.2148-8.8438z"/>
  <path d="m520.53 307.48c0.625 5.7812-0.80859 9.5195-6.6367 8.8516-1.1719-1.7773-2.3086-3.5938-2.2188-6.6367 1.9727-1.7148 5-2.3789 8.8555-2.2148z"/>
  <path d="m493.98 314.12c0.92578 17.16-6.5312 25.922-24.348 24.344-14.312-15.609 7.9766-39.43 24.348-24.344zm-6.6367 6.6367c0.99609-3.6133-12.059-3.6133-11.07 0 0.26953 3.1523 12.129 9.1172 11.07 0z"/>
  <path d="m445.3 318.55h-8.8594c-1.7305-8.5234 10.602-8.5234 8.8594 0z"/>
  <path d="m230.67 322.98h6.6406c0.62109 5.7891-0.80469 9.5195-6.6406 8.8555-3.6914-4.3984 0.19922-2.8164 0-8.8555z"/>
  <path d="m288.2 322.98c6.5781 0.19531 5.918 13.195-2.2148 11.066-0.69922-5.1328 0.35938-8.5 2.2148-11.066z"/>
  <path d="m416.53 322.98c0.62109 5.7891-0.80078 9.5195-6.6406 8.8555-0.62109-5.793 0.8125-9.5234 6.6406-8.8555z"/>
  <path d="m553.72 322.98c8.5234-1.7422 8.5234 10.594 0 8.8555v-8.8555z"/>
  <path d="m527.17 340.68h6.6406c0.62109 5.7891-0.80859 9.5195-6.6406 8.8516v-8.8516z"/>
  <path d="m478.49 353.95h8.8594c-0.27734 5.6289-3.2266 8.582-8.8594 8.8516v-8.8516z"/>
  <path d="m241.73 356.16c9.2383 1.4805 1.0273 13.738-4.4258 6.6367 0.78125-2.9062 3.8906-3.4766 4.4258-6.6367z"/>
  <path d="m206.33 358.38c12.59 8.9805-12.852 14.777 0 0z"/>
  <path d="m228.46 362.8c3.5742-0.62109 3.8086 2.0938 6.6406 2.2148 0.66406 5.832-3.0664 7.2617-8.8555 6.6406-0.9375-4.6289 1.5195-5.8633 2.2148-8.8555z"/>
  <path d="m250.59 382.71c6.9336 1.5273 2.8828 5.8984 2.2109 11.07-9.8867 0.36328-5.7109-7.793-2.2109-11.07z"/>
  <path d="m498.41 384.93c0.63281 5.7812-0.80469 9.5195-6.6406 8.8555-0.625-5.793 0.80859-9.5234 6.6406-8.8555z"/>
  <path d="m518.32 387.14h4.4258c-0.39844 1.8789 0.86328 2.082 2.2148 2.2109v4.4297c-1.875-0.41406-2.082 0.85938-2.2148 2.2031h-4.4258c0.40625-1.8828-0.85938-2.082-2.2148-2.2031v-4.4297c1.8828 0.41016 2.0898-0.86719 2.2148-2.2109z"/>
  <path d="m434.23 404.85c5.8242-0.67188 7.2617 3.0625 6.6406 8.8516h-8.8555c-0.27344-3.9805 2.707-4.6797 2.2148-8.8516z"/>
  <path d="m409.89 409.27c3.9062 0.53125 5.0586 3.8164 4.4297 8.8555h-6.6367c-0.9375-4.6328 1.5156-5.8516 2.207-8.8555z"/>
  <path d="m502.83 418.12c2.2852 9.0234-10.336 11.793-8.8438 2.2148 1.9531-1.7227 4.9961-2.3828 8.8438-2.2148z"/>
  <path d="m210.76 444.68c5.832-0.66797 7.2617 3.0664 6.6367 8.8594h-8.8438c-0.94531-4.6328 1.5078-5.8711 2.207-8.8594z"/>
  <path d="m297.05 446.89c-0.26953 5.6133-3.2148 8.5781-8.8438 8.8398-6.8945-6.0898 2.75-15.738 8.8438-8.8398z"/>
  <path d="m259.44 451.32c1.543 8.1758-3.5039 9.7734-11.062 8.8555v-6.6367c2.5625-1.8711 5.9336-2.9219 11.062-2.2188z"/>
  <path d="m458.57 460.17h-8.8555c-1.7266-8.5195 10.598-8.5195 8.8555 0z"/>
  <path d="m462.99 462.37v6.6406c-7.0508-1.3086-6.8398 4.1445-11.062 0 2.0352-3.8789 4.1289-7.6797 11.062-6.6406z"/>
  <path d="m283.77 473.45v8.8398h-8.8438c-1.0312-6.918 1.918-9.8828 8.8438-8.8398z"/>
  <path d="m259.44 486.72c-0.98047 10.086-7.1875 14.934-13.277 19.918-11.891-5.5-13.738-8.8125-13.281-24.352 6.0352-11.734 23.07-4.918 26.559 4.4336zm-15.492 8.8477c8.1367 2.1328 8.7969-10.855 2.2148-11.062 0.90625 5.332-4.0469 4.8086-2.2148 11.062z"/>
  <path d="m299.27 506.64c5.7891-0.625 9.5195 0.80078 8.8516 6.6367-1.9688 1.7188-5 2.3789-8.8516 2.2109v-8.8477z"/>
  <path d="m522.74 506.64c3.582-0.625 3.8086 2.082 6.6406 2.2031 0.66797 5.8242-3.0586 7.2578-8.8516 6.6406-0.94531-4.625 1.5117-5.8555 2.2109-8.8438z"/>
  <path d="m228.46 519.91c-6.2578-1.832-5.7305 3.1133-11.066 2.2109-3.7227-10.516 12.734-12.211 11.066-2.2109z"/>
  <path d="m374.5 519.91c3.8867 0.53125 5.0391 3.8008 4.4219 8.8438h-6.6406c-0.93359-4.625 1.5234-5.8555 2.2188-8.8438z"/>
  <path d="m560.36 519.91c1.832 6.25-3.125 5.7344-2.2188 11.062-3.2305-1.9297-8.5664-1.7617-6.6367-8.8516 1.9727-1.7227 5-2.3867 8.8555-2.2109z"/>
  <path d="m389.98 522.12c1.832 6.2578-3.1133 5.7266-2.2109 11.07-6.582-0.20312-5.9141-13.207 2.2109-11.07z"/>
  <path d="m308.12 537.61c3.5039 0.17969 8.4414-1.0625 8.8516 2.2148 2.4141 7.7656-13.578 5.9258-8.8516-2.2148z"/>
  <path d="m445.3 537.61c3.6797 4.3945-0.19922 2.8086 0 8.8555-8.5117 1.7305-8.5117-10.598 0-8.8555z"/>
  <path d="m215.18 542.04c-1.3359 4.5742-3.4219 8.3828-11.066 6.6406v-6.6406c2.9102-2.8438 8.1562-2.8438 11.066 0z"/>
  <path d="m279.35 542.04c0.66797 5.8242-3.0664 7.2578-8.8516 6.6406-0.66016-5.8359 3.0703-7.2617 8.8516-6.6406z"/>
  <path d="m551.51 542.04c5.7891-0.62109 9.5156 0.80469 8.8555 6.6406-4.1562 4.3398-10.656 1.2773-8.8555-6.6406z"/>
  <path d="m392.19 548.67c8.5156-1.7383 8.5156 10.598 0 8.8516-3.6875-4.3984 0.19531-2.8164 0-8.8516z"/>
  <path d="m230.67 553.1c0.625 5.7812-0.80469 9.5195-6.6367 8.8438-0.625-5.7891 0.80469-9.5156 6.6367-8.8438z"/>
  <path d="m409.89 555.31c6.6602-2.2305 3.9258 4.9297 4.4297 8.8516h-6.6367c-0.9375-4.6289 1.5156-5.8555 2.207-8.8516z"/>
  <path d="m175.36 559.74c6.9844 0.38281 13.195 1.5469 13.277 8.8438-4.8359 4.1836-14.078-0.64063-13.277-8.8438z"/>
  <path d="m341.3 559.74h8.8516c1.0273 6.9141-1.9258 9.8711-8.8516 8.8438v-8.8438z"/>
  <path d="m476.27 559.74c9.2461 1.4688 1.0352 13.73-4.4219 6.6367 0.78125-2.9023 3.8906-3.4922 4.4219-6.6367z"/>
  <path d="m440.88 573.01c4 3.793-0.67969 8.6914-6.6406 8.8516-0.62109-5.7969 0.81641-9.5195 6.6406-8.8516z"/>
  <path d="m292.62 575.22c5.832-0.65625 7.2617 3.0586 6.6406 8.8516h-8.8516c-0.94141-4.6328 1.5156-5.8477 2.2109-8.8516z"/>
  <path d="m451.94 537.61c-23.906-52.957 51.105-61.609 50.891-17.695-0.11719 25.289-29.816 32.016-50.891 17.695zm4.4219-22.129c9.0195-4.2617 18.785-7.7773 28.773-11.066-10.426-10.887-27.074-0.35547-28.773 11.066z"/>
  <path d="m456.36 174.73c41.586 6.4531 88.188-38.855 119.49-11.066 31.793 28.215-23.527 72.168-37.613 92.934 26.094 30.242 50.816 40.672 46.465 86.297-2.7031 28.504-30.758 48.516-35.402 73.016-8.8789 46.812 19.301 71.32 37.617 101.79-2.4883 16.676 5.2617 50.945-8.8555 61.953-26.688 7.0156-39.16-14.012-59.746-19.91-24.207 14.195-49.5 39.262-81.875 35.398-19.926-2.375-35.25-20.949-55.309-22.121-29.957-1.7539-42.977 17.977-70.805 30.973-29.66-0.48438-47.609-25.156-75.23-26.551-25.094-1.2461-53.609 27.02-77.445 2.2188-8.0859-37.246 17.723-56.703 30.977-79.656 0.94531-13.02-10.781-18.047-11.066-28.773-0.75391-28.523 37.367-58.625 13.277-92.934-46.762-10.586-2.2109-53.535-2.2109-81.871 0-33.656-42.074-49.406-28.766-95.141 4.7305-16.238 22.305-44.316 39.828-44.258 10.23 0.035156 20.113 9.4648 30.977 11.066 27.52 4.0469 55.852-22.852 79.668-17.707 20.539 4.4414 28.453 27.605 57.531 26.551 26.098-12.918 70.887-42.371 88.496-2.207zm-159.31-6.6406c-6.9727 0.33203-0.92969-12.34-11.062-8.8516-21.488 7.0508-33.41 18.195-57.531 15.484-14.066-1.5781-29.047-14.133-42.043-6.6406-7.5625 18.48-25.082 32.414-22.125 55.32 2.3789 18.371 19.773 36.461 30.977 44.258-4.1133 10.156 0.6875 15.688 0 24.344-1.8164 22.773-21.98 45.906-19.918 59.738 2.4258 16.242 23.293 18.5 33.191 33.191-2.0664 2.3672-8.168 0.6875-6.6406 6.6406 7.3398 30.691-10.957 53.59-15.492 79.656 30.547 41.895-37.902 56.473-19.918 106.21 6.8945 1.2148 14.422 1.8047 19.918 4.4297-1.3438-8.7148 4.9531-9.7969 11.066-11.066v11.066c39.965-28.613 76.18 8.0664 115.06 13.27 24.574-12.035 41.961-34.004 75.23-30.977 20.145 1.832 38.98 21.555 57.535 22.133 26.648 0.80859 54.316-32.445 73.016-33.191 22.496-0.90625 31.125 27.398 57.531 19.91 21.273-47.969-26.156-75.824-33.191-115.06-10.445-58.34 40.922-81.277 35.406-132.76-1.0625-9.8867-6.3633-19.047-11.062-33.188-12.996-12.129-34.203-12.102-35.406-30.984-1.8398-28.688 78.613-59.125 33.191-95.141-37.965-4.0508-64.027 12.754-110.62 17.695-6.6133-21.527-48.223-36.164-57.539-6.6328-10.008-3.9062-20.266 6.2148-33.188 6.6367-23.996 0.79297-43.418-17.832-59.746-26.551-3.0781 2.8164-0.95703 10.836-6.6328 11.062z"/>
 </g>
</svg>
