<?xml version="1.0" encoding="UTF-8"?>
<svg width="752pt" height="752pt" version="1.1" viewBox="0 0 752 752" xmlns="http://www.w3.org/2000/svg">
 <defs>
  <clipPath id="a">
   <path d="m139.21 170h473.58v412h-473.58z"/>
  </clipPath>
 </defs>
 <g clip-path="url(#a)">
  <path d="m343.48 518.31-25.484-4.0703c-4.4648 20.23-8.9844 40.57-13.391 60.633-5.7383-0.90234-11.539-1.3945-17.348-1.4688-6.5 0.33984-7.2891-2.543-6.2734-7.7969 3.7305-19.609 7.1211-39.555 11.301-58.824 1.6914-6.4023 0.58203-13.223-3.0508-18.758-14.422-23.504-22.684-50.266-24.016-77.812-1.3477-20.684-4.6562-41.195-9.8867-61.25-3.2461-8.7695-8.4883-16.664-15.312-23.055-17.23-19.055-30.859-41.07-40.234-64.984-1.8789-3.9102-4.918-7.1445-8.7031-9.2656-13.957-8.3633-28.254-16.047-42.266-24.355-3.4766-2.4531-6.6953-5.2539-9.6055-8.3633l1.4688-3.0508 29.441 4.125c-4.7461-4.2383-8.3086-6.9492-11.02-10.34-2.7109-3.3906-4.8047-6.2734-7.2344-9.5508l1.4141-1.75 18.422 2.4297c3.4453 0.26562 6.8633 0.79297 10.227 1.582 11.301 3.2773 16.953-0.90234 22.039-11.301 5.0859-10.398 17.629-14.863 28.535-17.914 29.215-8.1367 54.98 0.73438 79.109 16.953 25.879 17.402 40.289 43.34 53.793 70.012 9.1328 18.844 22.633 35.234 39.387 47.801 16.105 11.867 31.812 24.242 48.371 37.012h-0.003906c0.41797-6.8594 1.6328-13.648 3.6172-20.227 6.082-15.754 13.648-30.891 22.602-45.207 7.4141-9.2344 16.648-16.852 27.125-22.375 10.453-6.3281 23.562 4.2383 22.207 16.953-0.73438 6.4414-2.2031 12.828-3.1094 17.801 7.5156-4.4648 15.312-9.832 23.789-13.902 10.172-4.918 18.195-0.79297 20.172 10.285v-0.003906c0.94531 7.5 1.4922 15.047 1.6406 22.605 3.0859-1.7031 6.2773-3.2148 9.5508-4.5234 4.4141-1.5977 9.1992-1.8594 13.762-0.75391 4.5625 1.1055 8.6992 3.5312 11.891 6.9727 9.0977 8.418 6.1016 18.984 4.0703 28.594-3.0508 14.578-12.828 25.598-23 35.883-12.375 12.543-24.637 25.258-38.027 36.672-16.953 14.352-34.809 27.348-52.211 41.082-6.2734 4.9727-12.43 10.113-18.309 15.598v-0.007813c-1.2188 1.6133-1.6172 3.7031-1.0742 5.6523 7.332 19.648 11.285 40.398 11.695 61.367 0.83594 9.1172 2.1367 18.191 3.8984 27.18-6.6406-3.4727-13.023-7.4219-19.098-11.812-20.738-17.855-45.207-29.102-68.883-42.324-3.1523-1.0703-6.5547-1.1875-9.7734-0.33594-3.5078 1.2266-7.0938 2.207-10.738 2.9375-9.6641 0-11.695 5.9883-12.883 13.844-2.543 16.332-5.3125 32.605-8.5312 48.766-0.39453 1.8086-4.293 3.7305-6.7812 4.1797-5.6523 1.0156-11.922 1.3008-17.855 1.75-5.9336 0.45312-7.7422-2.2031-7.0078-7.1758 1.1289-8.1367 2.543-16.273 4.1797-24.297 2.3164-10.172 4.8594-20.453 7.4023-31.812zm129.96-50.289c8.8711-7.1758 16.953-14.41 25.539-20.457h0.003906c34.379-23.723 65.68-51.625 93.18-83.062 7.9648-8.3594 13.309-18.871 15.367-30.234 1.6406-11.301-1.75-19.098-11.301-22.602-4.8906-1.2188-10.027-1.082-14.844 0.40234-4.8203 1.4844-9.1445 4.2578-12.504 8.0195-4.293 6.8945-8.5312 13.902-13.109 20.625-11.301 16.953-22.602 33.508-33.902 50.234h-0.003906c-0.94922 1.1055-2.0273 2.0938-3.2188 2.9375l-2.2031-0.96094c0.74609-2.9297 1.8086-5.7734 3.1641-8.4766 12.883-19.891 26.445-39.555 38.875-59.613 6.7812-10.961 11.301-23 6.8359-36.445l0.003906-0.003906c-0.57812-2.9727-2.5742-5.4766-5.3438-6.707-2.7734-1.2266-5.9688-1.0195-8.5586 0.55078-15.395 5.7461-27.152 18.449-31.699 34.242-2.9961 10.227-6.7812 20.172-10.625 30.062-4.6328 11.754-9.6641 23.336-14.523 34.977l-2.7695-0.50781h0.003906c0.082031-3.8125 0.59375-7.6055 1.5234-11.305 6.3281-17.461 13.449-34.695 19.438-52.324 4.5586-13.578 8.332-27.406 11.305-41.418 0.52344-4.6523-0.98047-9.3047-4.125-12.77-3.4883-2.3047-7.8906-2.7266-11.754-1.1328-7.9609 3.8125-15.16 9.0391-21.246 15.426-13.059 15.598-22.41 33.953-27.352 53.684-1.7969 5.0703-2.1836 10.535-1.1172 15.809 1.0625 5.2773 3.5391 10.164 7.1641 14.141 2.4531 3.5781 4.3555 7.5 5.6523 11.641l-2.9375 1.4688c-1.0742-1.8086-2.0898-3.7305-3.332-5.6523h-0.003906c-3.2852-5.7695-7.207-11.152-11.695-16.047-11.809-10.453-24.129-20.344-36.73-29.777-21.133-15.82-40.742-32.605-53.172-56.508-7.7969-15.086-16.953-29.555-26.164-43.793-13.957-21.125-34.934-36.633-59.219-43.793-17.039-6.1875-35.863-5.1875-52.156 2.7695-6.6172 2.8438-12.438 7.2656-16.949 12.883-11.809 16.953-12.656 36.617-7.3477 56.055 6.7578 24.574 19.312 47.172 36.617 65.887 11.98 13.164 23.223 26.727 26.164 44.867 2.2617 14.238 3.8438 28.594 4.9727 43 2.2617 29.328 7.9102 57.582 24.582 82.5h-0.003907c7.6094 12.891 20.586 21.699 35.371 24.016 14.332 1.1289 28.73 1.1289 43.059 0 6.9023-0.78906 13.738-2.0742 20.457-3.8438v-2.2031l-8.9844-4.6914c-7.0898-3.1016-13.93-6.75-20.457-10.906-28.254-21.414-53.457-45.207-64.926-80.184v0.003907c-5.5195-17.383-7.1602-35.766-4.8008-53.852 2.3164-19.664 15.426-32.941 30.684-44.02 4.0664-2.5742 8.8359-3.8242 13.645-3.5703 4.8086 0.25391 9.418 1.9961 13.195 4.9844 1.4688 1.1328 3.0391 2.1367 4.6875 2.9922 18.922 10.148 35.574 24.051 48.938 40.855 24.75 30.965 50.066 62.156 63.23 100.3 1.5977 3.957 3.4453 7.8047 5.5352 11.527zm13.223 86.793c-2.2031-23.449-1.3008-44.922-9.2109-64.586-10.906-27.066-21.586-54.305-37.973-79.109-21.133-31.871-44.469-61.48-74.926-84.758-10.906-8.3047-23.508-16.953-37.352-9.2656v-0.003906c-9.0703 5.3789-16.676 12.91-22.148 21.926-10.566 16.953-8.8164 36.109-5.6523 54.586 5.6523 31.418 25.203 54.414 47.238 75.945 14.523 14.184 33.113 21.133 50.289 30.625 21.641 12.035 43.227 24.184 64.531 36.73 8.2539 4.8555 15.598 10.961 25.316 17.91zm-119.62-36.391c-16.105-2.543-16.445-2.6562-20.57 11.301-2.7109 9.1523-4.5195 18.535-6.3281 27.859-0.84766 4.5195-2.6562 11.922-0.84766 13.164 4.7305 2.2461 10.012 3.0703 15.199 2.375 1.9766 0 5.0859-3.8438 5.6523-6.2734 2.4844-15.82 4.5742-31.867 6.8945-48.426zm-81.879 47.691c16.953 2.7109 15.82 3.957 18.875-12.262 1.6406-8.8711 2.9961-17.801 5.1406-26.559 3.8984-15.707 4.125-15.652-8.7031-25.145-0.33984 0-0.96094 0-1.9766-0.33984-4.4844 21.434-8.9297 42.871-13.336 64.305zm-91.258-319.71v-37.293l-29.555-2.3164c7.6289 7.1211 15.484 11.301 18.875 22.094l-31.023-6.3867v0.79297z"/>
 </g>
 <path d="m245.16 190.69c5.5156 0.64844 10.656 3.1172 14.605 7.0156 3.9531 3.9023 6.4883 9.0078 7.207 14.516-0.21875 4.6914-2.2852 9.1055-5.7461 12.281-3.4609 3.1758-8.0391 4.8516-12.73 4.668-8.418 0-20.285-11.301-20.512-19.324-0.33984-11.469 6.3281-19.098 17.176-19.156zm2.8242 32.547c6.4453 0.45703 12.062-4.3516 12.602-10.793 0-7.1758-8.0234-16.332-14.07-16.332v0.003906c-3.5156 0.058594-6.8633 1.5273-9.2852 4.0781-2.4219 2.5508-3.7188 5.9688-3.5977 9.4844 0.59375 3.5117 2.3164 6.7383 4.9062 9.1836 2.5898 2.4492 5.9062 3.9844 9.4453 4.375z"/>
 <path d="m499.66 283.47c3.8438-2.6562 6.2148-5.6523 8.5312-5.6523 2.3164 0 5.6523 4.293 4.918 5.6523-1.3789 3.0977-3.2891 5.9258-5.6484 8.3633z"/>
 <path d="m488.36 328.34c-3.332-4.6328-6.2734-7.0078-6.4414-9.5508-0.16797-2.543 3.6719-5.6523 5.6523-5.3672 2.7305 0.78516 4.8633 2.918 5.6484 5.6484 0.39844 1.9219-2.2578 4.5781-4.8594 9.2695z"/>
 <path d="m527.07 352.64c-3.1641-4.125-6.668-6.7812-6.4414-8.9844 0.22656-2.2031 4.125-4.293 6.3867-6.4414 2.0352 2.2617 5.1992 4.3516 5.6523 6.8945 0.44922 2.5391-2.8281 4.5195-5.5977 8.5312z"/>
 <path d="m528.43 323.76 8.4766-6.3281c2.2461 2.543 4.1484 5.375 5.6523 8.418 0.33984 0.84766-3.7852 4.8594-5.1992 4.5781-2.5977-0.62109-4.7461-3.3906-8.9297-6.668z"/>
 <path d="m550.8 317.71c-3.2227-4.8594-6.0469-7.3477-6.1602-9.9453-0.11328-2.5977 3.332-4.0703 5.1992-6.1016 2.0352 2.2031 5.1992 4.1797 5.6523 6.668 0.44922 2.4844-2.0938 4.6875-4.6914 9.3789z"/>
 <path d="m495.54 309.63c-1.4688-2.4844-4.4062-5.1992-4.0703-7.457 0.33984-2.2617 3.5586-4.8594 5.6523-7.2344 1.8086 1.8086 5.3125 3.7305 5.1992 5.6523-0.78516 3.2891-2.1211 6.4219-3.9531 9.2656z"/>
 <path d="m582.16 337.1c3.6172-2.2617 6.2734-5.0273 7.6836-4.5195 2.4297 0.96094 5.6523 3.8984 5.6523 6.1016 0 2.2031-3.3906 4.3516-5.3125 6.5z"/>
 <path d="m480.06 348.57c-2.3516-3.0039-4.2539-6.3359-5.6523-9.8867 0-1.3008 4.125-4.918 4.6328-4.5781 2.832 1.5977 5.2031 3.8945 6.8945 6.668 0.51172 0.90234-2.7695 3.7852-5.875 7.7969z"/>
 <path d="m574.31 363.71c-4.0703 2.8242-7.0625 5.9883-8.082 5.6523-2.6055-1.5742-4.5977-3.9844-5.6523-6.8398-0.39453-0.96094 3.4453-4.9727 4.5195-4.6914l0.003906 0.003907c3.3359 1.5 6.4414 3.4805 9.2109 5.875z"/>
 <path d="m540.91 400.72c-2.9375-3.8984-5.6523-6.0469-5.9883-8.4766-0.33984-2.4297 2.8242-4.0117 4.4062-6.0469 1.8633 2.1484 4.5781 3.957 5.6523 6.4414 0.22656 1.5859-2.0898 4.0703-4.0703 8.082z"/>
 <path d="m583.41 350.21-6.0469 5.9883c-1.9219-2.0352-5.6523-4.3516-5.2539-6.1016 0.39453-1.75 3.6719-4.1797 5.6523-6.2734z"/>
 <path d="m518.09 370.72c-2.3047-2.7305-4.207-5.7734-5.6484-9.043-0.33984-1.3008 2.3164-3.2773 3.6172-5.0273 2.207 1.8164 4.1133 3.9727 5.6484 6.3828 0.16797 1.1875-1.75 3.5039-3.6172 7.6875z"/>
 <path d="m555.32 386.43c-2.4844-2.5859-4.6641-5.4492-6.4961-8.5312 0-0.62109 3.5586-4.4062 4.5195-4.0703 2.3672 1.0273 4.2617 2.9023 5.3125 5.2578 0.50781 1.2422-1.3008 3.5586-3.3359 7.3438z"/>
 <path d="m358.96 383.38c12.883 0.33984 30.91 12.375 33.902 21.812 0.33203 4-0.10938 8.0312-1.2969 11.867-3.6719-1.0156-8.7578-0.84766-10.68-3.2773-7.7422-9.2695-14.184-19.383-21.926-30.402zm11.301 6.6094c4.3516 9.8867 7.6289 18.25 17.402 21.98 0.17188-7.625-3.8398-13.051-17.684-21.977z"/>
 <path d="m354.73 330.43c11.301 8.25 25.09 9.7188 29.27 23.957 0.56641 2.0352 0.79297 5.6523 0 6.3281-2.2656 1.2734-4.9414 1.6172-7.457 0.96094-12.262-2.9375-21.473-15.426-21.812-31.246zm21.414 27.293 1.9766-2.1484c-3.8984-9.043-9.6641-13.391-18.703-12.32z"/>
 <path d="m410.78 401.8c-3.4648-1.8711-6.7266-4.1094-9.7188-6.668-4.8438-4.9375-9.2656-10.266-13.223-15.934-0.87109-2.0703-0.61719-4.4414 0.67969-6.2734 1.7852-1.1953 4.0391-1.4492 6.043-0.67969 8.7031 4.3516 18.363 7.5703 23.109 17.348 2.7734 5.9336 0.23047 12.207-6.8906 12.207zm-15.992-25.031-2.8242 3.332c5.2539 4.8047 10.398 9.7188 15.879 14.297 1.1289 0.90234 3.6172 0 5.6523 0.39453-0.39453-1.9219 0-4.6914-1.4141-5.6523-5.707-4.6875-11.586-8.5859-17.293-12.656z"/>
 <path d="m341.22 380.32c-2.9375 3.0508-4.7461 6.5547-6.6094 6.5547h-0.003906c-3.5195 0.23828-6.9727-1.0352-9.4922-3.5039-3.7227-6.4141-6.7344-13.219-8.9844-20.285-0.36719-2.4648 0.60156-4.9375 2.543-6.5 2.8828-0.90234 8.082-1.1875 9.2656 0.45312 4.918 7.2344 8.6484 15.031 13.281 23.281zm-17.289-18.93h-0.003906c-0.9375 3.9805-0.57031 8.1562 1.0469 11.91 1.6172 3.7539 4.4023 6.8906 7.9375 8.9414 1.3555-9.1562-5.3672-14.352-8.9844-20.852z"/>
 <path d="m408.24 468.53c5.6523 7.457 11.301 14.805 16.445 22.602 0.61719 2.4805 0.007812 5.1094-1.6406 7.0625-0.96094 1.1289-4.4062 1.0742-6.3281 0.45313-3.8633-1.2031-7.1484-3.7852-9.2344-7.2578-2.082-3.4688-2.8203-7.582-2.0664-11.559v-10.172z"/>
 <path d="m349.07 394.17c2.8242 1.3555 5.9883 1.8086 7.2891 3.6172h0.003907c4.6992 6.3867 8.9844 13.066 12.824 20.004 1.0742 1.9766 0.73438 6.6094-0.67969 7.5156h0.003906c-2.6016 1.4805-5.7188 1.75-8.5352 0.73437-10.453-4.6914-15.48-18.59-10.906-31.871zm16.445 26.051-11.754-16.953c-1.8633 9.832 1.6953 15.484 11.754 16.953z"/>
 <path d="m343.59 340.82c7.5703 8.082 13.844 14.07 19.211 20.738h0.003906c1.7656 1.6875 2.7188 4.0586 2.6133 6.5s-1.2578 4.7188-3.1641 6.2461-4.3828 2.1602-6.7891 1.7305c-2.4062-0.42578-4.5078-1.8711-5.7695-3.9648-4.0117-6.4375-7.2539-13.32-9.6641-20.512-0.79297-2.2617 1.8086-5.707 3.5586-10.738zm1.5273 8.4766c0 12.094 6.1602 21.414 13.504 20.793 0.56641-7.1172-1.9766-11.188-13.504-20.793z"/>
 <path d="m404.79 421.01c6.0195 6.5625 11.68 13.449 16.949 20.625 2.2031 3.2227 7.7969 8.3047 1.8633 12.375-5.9336 4.0703-10.906-0.90234-14.012-5.6523v0.003906c-5.2969-7.5352-7.9219-16.625-7.457-25.824zm14.297 28.648 2.1484-1.75-10.797-13.789-1.6953 1.3008c2.9961 5.1406 2.543 12.715 10.566 14.238z"/>
 <path d="m395.18 467.68c-3.6797-3.2812-7.0312-6.9141-10-10.852-2.4414-4.4258-4.3359-9.1289-5.6523-14.012-0.25391-1.6484-0.25391-3.3242 0-4.9727 1.9766 0 4.8047-0.84766 5.6523 0 6.2383 6.125 12.105 12.617 17.574 19.438 3.1641 4.0117-0.56641 8.7578-7.5742 10.398zm-6.6641-20.684-1.8086 1.6406c3.1641 4.1797 1.9219 11.867 11.754 10.793z"/>
 <path d="m445.14 455.59c0.60156-1.2812 1.4258-2.4492 2.4297-3.4453 1.1445-0.52344 2.4805-0.39453 3.5039 0.33984 5.6523 7.8555 11.301 15.82 16.953 24.016 0.96094 1.4141 0.90234 5.2539 0 5.6523v-0.003906c-2.0547 1.0156-4.418 1.2148-6.6133 0.56641-9.2656-2.3164-16.613-14.297-16.273-27.125zm16.953 22.602 2.0898-1.75-11.301-15.484c-2.1914 7.25 1.7969 14.918 8.9844 17.293z"/>
 <path d="m452.71 497.86c9.8867 1.3555 18.816 12.094 17.855 20.344 0 1.8633-1.3008 4.9727-2.375 5.1992l0.003906-0.003906c-2.3789 0.47656-4.8516 0.007812-6.8945-1.3008-6.7188-6.1445-9.9414-15.234-8.5898-24.238z"/>
 <path d="m427.05 407.73c5.6523 6.5 11.301 12.941 16.953 19.551 1.2578 1.3672 1.9297 3.1719 1.8633 5.0273-0.76172 3.0977-1.7812 6.1211-3.0508 9.043-2.7109-1.2422-6.4414-1.75-8.0234-3.8438-6.1523-8.3164-9.6211-18.309-9.9453-28.648zm6.5547 12.207-2.8242 1.6953 7.9102 14.52 3.4453-2.0352z"/>
 <path d="m447.29 493.05c-15.82 1.1875-23.395-10.793-19.496-30.062 10.004 5.0312 20.344 20.625 19.496 30.062zm-14.805-20.117c0.28125 11.301 2.8828 14.578 11.301 14.352z"/>
 <path d="m343.03 438.41c-12.488 0.56641-24.184-13.164-20.738-23.902 1.2266-2.582 3.3867-4.6016 6.0469-5.6523 1.0742-0.39453 4.0117 1.9219 5.0859 3.6172 4.6875 7.9102 11.242 15.086 9.6055 25.938zm-3.2773-5.6523c-3.4453-6.1602-6.8359-12.375-10.227-18.535-3.4492 9.4961-0.17188 15.316 10.227 18.254z"/>
 <path d="m360.04 443.61c8.3398 5.1797 14.766 12.934 18.309 22.094 0.23047 2.5195-0.83203 4.9883-2.8281 6.5547-2.4375 0.81641-5.1133 0.55078-7.3438-0.73438-8.5898-4.8047-10.961-12.773-8.1367-27.914zm10.848 24.746 3.2227-2.375-8.8711-12.652-2.8828 1.9766z"/>
 <path d="m256.52 212.78c-1.4688 0.79297-3.957 3.2773-6.668 3.5039-5.6523 0.39453-11.301-1.75-11.02-8.418 0-2.6562 4.4062-6.5 7.4023-7.2891 5.4805-1.3008 10.172 3.7266 10.285 12.203z"/>
</svg>
