<?xml version="1.0" encoding="UTF-8"?>
<svg width="752pt" height="752pt" version="1.1" viewBox="0 0 752 752" xmlns="http://www.w3.org/2000/svg">
 <g>
  <path d="m752 376c0 134.33-71.664 258.46-188 325.62-116.34 67.168-259.66 67.168-376 0-116.34-67.164-188-191.29-188-325.62s71.664-258.46 188-325.62c116.34-67.168 259.66-67.168 376 0 116.34 67.164 188 191.29 188 325.62"/>
  <path d="m358.81 280.1h2.5664c0.80469 0 1.457 0.80469 1.457 1.457v191.86c0 0.80469-0.65234 1.457-1.457 1.457h-2.5664c-0.80469 0-1.457-0.80469-1.457-1.457v-191.86c0-0.80469 0.65234-1.457 1.457-1.457z" fill="#fff"/>
  <path d="m300.02 391.92v-2.5664c0-0.80469 0.80469-1.457 1.457-1.457h116.63c0.80469 0 1.457 0.65234 1.457 1.457v2.5664c0 0.80469-0.80469 1.457-1.457 1.457h-116.63c-0.80469 0-1.457-0.65234-1.457-1.457z" fill="#fff"/>
  <path d="m360 280.07h61.578c0.88672 0 1.6055 0.88672 1.6055 1.6055v2.2695c0 0.88672-0.71875 1.6055-1.6055 1.6055h-61.578c-0.88672 0-1.6055-0.88672-1.6055-1.6055v-2.2695c0-0.88672 0.71875-1.6055 1.6055-1.6055z" fill="#fff"/>
 </g>
</svg>
