<?xml version="1.0" encoding="UTF-8"?>
<svg width="752pt" height="752pt" version="1.1" viewBox="0 0 752 752" xmlns="http://www.w3.org/2000/svg">
 <g>
  <path d="m752 376c0 134.33-71.664 258.46-188 325.62-116.34 67.168-259.66 67.168-376 0-116.34-67.164-188-191.29-188-325.62s71.664-258.46 188-325.62c116.34-67.168 259.66-67.168 376 0 116.34 67.164 188 191.29 188 325.62"/>
  <path d="m597.99 381.92c0-10.852-8.8789-19.734-19.734-19.734h-53.277-0.98828c-13.812 36.504-28.613 70.051-44.398 84.852-18.746 16.773-43.41 25.652-69.062 25.652s-50.316-8.8789-69.062-25.652c-18.746-16.773-29.598-40.453-29.598-65.117s10.852-47.359 29.598-65.117c18.746-16.773 66.105-32.559 114.45-45.387v-23.68c0-57.223-57.223-103.6-128.26-103.6-39.465 0-75.969 13.812-100.64 38.477-18.746 18.75-28.609 41.445-27.625 65.121v11.84l-16.773-8.8789c-9.8672-4.9336-20.719-0.98828-25.652 7.8945-4.9336 9.8672-0.98828 20.719 7.8945 25.652l13.812 8.8789-14.801 7.8945c-9.8672 4.9336-12.824 16.773-7.8945 25.652 3.9453 6.9062 9.8672 9.8672 16.773 9.8672 2.9609 0 5.918-0.98828 8.8789-1.9727l17.758-9.8672c0.98828 33.547 0.98828 63.145 0.98828 64.129 3.9453 61.172 50.316 112.48 116.42 136.16v31.57l-15.785 18.746c-6.9062 7.8945-5.918 20.719 2.9609 27.625 3.9453 2.9609 7.8945 3.9453 11.84 3.9453 5.918 0 10.852-1.9727 14.801-6.9062l19.734-24.664c2.9609-3.9453 3.9453-7.8945 3.9453-11.84v-28.613c13.812 1.9727 27.625 3.9453 42.426 3.9453v17.758l-15.785 18.746c-6.9062 7.8945-5.918 20.719 2.9609 27.625 3.9453 2.9609 7.8945 3.9453 11.84 3.9453 5.918 0 10.852-1.9727 14.801-6.9062l19.734-24.664c2.9609-2.9609 3.9453-7.8945 3.9453-11.84v-27.625c94.711-12.824 163.77-76.953 163.77-153.91zm-328.55-130.23c-10.852 0-19.734-8.8789-19.734-19.734 0-10.852 8.8789-19.734 19.734-19.734 10.852 0 19.734 8.8789 19.734 19.734s-8.8828 19.734-19.734 19.734z" fill="#fff"/>
  <path d="m350.35 381.92c0 13.812 5.918 26.641 16.773 36.504 11.84 9.8672 26.641 15.785 43.41 15.785 16.773 0 31.57-5.918 43.41-15.785 12.824-11.84 32.559-58.211 51.305-120.37-71.039 16.773-124.32 35.52-137.14 47.359-11.836 9.8633-17.758 22.691-17.758 36.504z" fill="#fff"/>
 </g>
</svg>
