<?xml version="1.0" encoding="UTF-8"?>
<svg width="752pt" height="752pt" version="1.1" viewBox="0 0 752 752" xmlns="http://www.w3.org/2000/svg">
 <path d="m376 144.76c-40.59 0-80.465 10.688-115.62 30.98-35.152 20.297-64.344 49.488-84.637 84.641-20.297 35.156-30.98 75.031-30.98 115.62 0 61.328 24.363 120.14 67.727 163.51 43.367 43.367 102.18 67.73 163.51 67.73 61.328-0.003907 120.14-24.363 163.51-67.73 43.367-43.367 67.727-102.18 67.73-163.51 0-40.59-10.688-80.465-30.98-115.62-20.297-35.152-49.488-64.344-84.641-84.637-35.152-20.297-75.027-30.984-115.62-30.984zm-54.793 64.75h0.003907c10.949 0 21.449 4.3477 29.191 12.082 7.7422 7.7383 12.094 18.23 12.094 29.172-0.003906 10.941-4.3516 21.434-12.094 29.172-7.7422 7.7344-18.242 12.082-29.191 12.082-10.949 0-21.449-4.3477-29.191-12.082-7.7422-7.7383-12.09-18.23-12.094-29.172 0-10.941 4.3516-21.434 12.094-29.172 7.7422-7.7344 18.242-12.082 29.191-12.082zm0 86.391c11.438 0 20.645 9.2031 20.645 20.629v41.258h54.477c7.6211 0 13.758 6.1328 13.758 13.75 0 7.6172-6.1367 13.754-13.758 13.754h-54.473v20.641h89.809c7.2383-0.10547 14.305 3.5859 18.199 10.324l55.055 95.266c5.7188 9.9023 2.3516 22.469-7.5547 28.18-9.9062 5.7148-22.484 2.3438-28.199-7.5469l-49.105-84.992h-98.836c-9.293 0-17.109-6.0742-19.715-14.48-0.097656-0.31641-0.1875-0.65625-0.27734-0.97656-0.089844-0.31641-0.16797-0.65234-0.23438-1.0039-0.070313-0.31641-0.12891-0.66406-0.18359-1.0117-0.050781-0.34766-0.097656-0.68359-0.13281-1.0312-0.042969-0.34766-0.046876-0.69922-0.082032-1.0469-0.035156-0.35156-0.035156-0.70703-0.035156-1.0703v-110.02c0-11.43 9.207-20.625 20.641-20.625zm-28.746 80.727 5.0391 8.707-4.3555 2.5117c-32.617 18.824-46.98 58.246-34.098 93.609s49.238 56.336 86.328 49.801c37.094-6.5312 64.074-38.668 64.074-76.305v-5.0273h10.055v5.0273c0 42.453-30.559 78.84-72.391 86.211-36.602 6.4492-72.699-10.934-90.879-42.098-2.6016-4.4492-4.832-9.1836-6.6484-14.168-14.527-39.891 1.7344-84.531 38.52-105.75z"/>
</svg>
