<?xml version="1.0" encoding="UTF-8"?>
<svg width="752pt" height="752pt" version="1.1" viewBox="0 0 752 752" xmlns="http://www.w3.org/2000/svg">
 <path d="m376 573.33c-52.332 0-102.52-20.789-139.53-57.797-37.008-37.004-57.797-87.195-57.797-139.53 0-52.332 20.789-102.52 57.797-139.53 37.004-37.008 87.195-57.797 139.53-57.797 52.336 0 102.53 20.789 139.53 57.797 37.008 37.004 57.797 87.195 57.797 139.53 0 34.641-9.1172 68.668-26.438 98.664-17.32 29.996-42.23 54.906-72.227 72.227-29.996 17.32-64.023 26.438-98.664 26.438zm0-355.19c-41.867 0-82.02 16.633-111.62 46.238-29.605 29.602-46.238 69.754-46.238 111.62s16.633 82.02 46.238 111.62c29.602 29.605 69.754 46.238 111.62 46.238s82.02-16.633 111.62-46.238 46.238-69.758 46.238-111.62-16.633-82.02-46.238-111.62c-29.605-29.605-69.758-46.238-111.62-46.238zm-19.73 217.06c0-5.2344-2.0781-10.254-5.7812-13.953-3.6992-3.6992-8.7188-5.7812-13.953-5.7812h-39.465v-78.93h39.465c7.0508 0 13.566-3.7617 17.09-9.8633 3.5234-6.1055 3.5234-13.629 0-19.734s-10.039-9.8672-17.09-9.8672h-59.195c-5.2344 0-10.254 2.0781-13.953 5.7812-3.7031 3.6992-5.7812 8.7188-5.7812 13.953v118.39c0 5.2344 2.0781 10.254 5.7812 13.953 3.6992 3.6992 8.7188 5.7773 13.953 5.7773h59.199-0.003906c5.2344 0 10.254-2.0781 13.953-5.7773 3.7031-3.6992 5.7812-8.7188 5.7812-13.953zm138.13 0c0-5.2344-2.082-10.254-5.7812-13.953-3.6992-3.6992-8.7188-5.7812-13.953-5.7812h-39.465v-78.93h39.465c7.0508 0 13.562-3.7617 17.09-9.8633 3.5234-6.1055 3.5234-13.629 0-19.734-3.5273-6.1055-10.039-9.8672-17.09-9.8672h-59.199c-5.2305 0-10.25 2.0781-13.953 5.7812-3.6992 3.6992-5.7773 8.7188-5.7773 13.953v118.39c0 5.2344 2.0781 10.254 5.7773 13.953 3.7031 3.6992 8.7227 5.7773 13.953 5.7773h59.199c5.2344 0 10.254-2.0781 13.953-5.7773 3.6992-3.6992 5.7812-8.7188 5.7812-13.953z"/>
</svg>
