<?xml version="1.0" encoding="UTF-8"?>
<svg width="752pt" height="752pt" version="1.1" viewBox="0 0 752 752" xmlns="http://www.w3.org/2000/svg">
 <defs>
  <clipPath id="a">
   <path d="m158 139.21h436v473.58h-436z"/>
  </clipPath>
 </defs>
 <g clip-path="url(#a)">
  <path d="m590.52 142.47c-1.875-2.0742-4.5391-3.2578-7.3242-3.2578h-414.38c-2.8008 0-5.4453 1.1836-7.3203 3.2578-1.875 2.0508-2.7812 4.8125-2.5039 7.5938l39.465 394.65c0.375 3.8477 3 7.1445 6.6875 8.3672l177.59 59.199c1.0078 0.35156 2.0703 0.51172 3.1172 0.51172 1.1836 0 2.3477-0.21875 3.4922-0.63281l157.86-59.199c3.5117-1.3008 5.9805-4.5195 6.3555-8.25l39.465-394.65c0.27734-2.7578-0.63281-5.5391-2.5039-7.5898zm-56.023 394.18-148.84 55.824-168.22-56.078-37.746-377.45h392.58z"/>
 </g>
 <path d="m267.45 257.62h225.05l-13.715 78.91h-201.47c-5.4453 0-9.8672 4.4219-9.8672 9.8672 0 5.4453 4.4219 9.8672 9.8672 9.8672h198.04l-19.336 111.15-70.367 26.383-80.055-26.699-8.7422-43.707c-1.0469-5.3281-6.1953-8.8203-11.602-7.7344-5.3281 1.0664-8.8008 6.2539-7.7344 11.602l9.8672 49.332c0.69141 3.4727 3.1953 6.293 6.5508 7.418l88.797 29.598c1.0039 0.35938 2.0664 0.51562 3.1133 0.51562 1.1836 0 2.3477-0.21875 3.4727-0.61328l78.93-29.598c3.2773-1.2422 5.6641-4.1055 6.2539-7.5586l39.465-226.93c0.49219-2.8594-0.29688-5.8008-2.1719-8.0312-1.875-2.2305-4.6562-3.5117-7.5586-3.5117h-236.79c-5.4453 0-9.8672 4.4219-9.8672 9.8672 0.003907 5.4492 4.4258 9.8672 9.8711 9.8672z"/>
</svg>
