<?xml version="1.0" encoding="UTF-8"?>
<svg width="752pt" height="752pt" version="1.1" viewBox="0 0 752 752" xmlns="http://www.w3.org/2000/svg">
 <g>
  <path d="m409.12 178.68h-66.242c-7.8477 0-15.379 3.1172-20.93 8.668s-8.668 13.082-8.668 20.93v107.12h-9.4609c-7.5703-0.039062-14.988 2.1133-21.363 6.1914-6.375 4.0781-11.438 9.9102-14.578 16.797-3.1953 6.7148-4.3789 14.215-3.418 21.59 0.96484 7.375 4.0391 14.312 8.8516 19.984 31.277 37.137 83.105 74.973 102.69 74.973 19.586 0 71.41-37.836 102.68-74.984v0.003907c4.8164-5.6719 7.8906-12.609 8.8555-19.984 0.96484-7.3789-0.21875-14.875-3.4102-21.594-3.1406-6.8867-8.2031-12.719-14.582-16.793-6.375-4.0781-13.793-6.2305-21.359-6.1953h-9.4609v-107.11c0-7.8477-3.1211-15.379-8.6719-20.93s-13.078-8.668-20.93-8.668zm39.062 156.45c3.8047-0.007812 7.5312 1.0781 10.734 3.1328 3.1992 2.0547 5.7422 4.9883 7.3203 8.4492 1.6133 3.3086 2.2227 7.0195 1.75 10.668-0.46875 3.6484-1.9961 7.082-4.3945 9.875-32.609 38.727-78.309 67.672-87.594 67.949-9.2852-0.27734-54.996-29.223-87.602-67.949-2.3984-2.7891-3.9297-6.2227-4.3984-9.875s0.14062-7.3594 1.7539-10.668c1.5508-3.4805 4.0859-6.4336 7.293-8.4922 3.2109-2.0586 6.9492-3.1328 10.762-3.0898h19.328c2.6172 0 5.1289-1.0391 6.9766-2.8906 1.8516-1.8477 2.8906-4.3594 2.8906-6.9766v-116.98c0-5.4492 4.418-9.8633 9.8672-9.8633h66.242c2.6172 0 5.125 1.0391 6.9766 2.8867 1.8477 1.8516 2.8906 4.3594 2.8906 6.9766v116.98c0 2.6172 1.0391 5.1289 2.8867 6.9766 1.8516 1.8516 4.3594 2.8906 6.9766 2.8906z"/>
  <path d="m499.33 484.53h-246.66c-15.859 0-30.52 8.4609-38.449 22.199-7.9297 13.734-7.9297 30.66 0 44.398 7.9297 13.734 22.59 22.199 38.449 22.199h246.66c15.863 0 30.52-8.4648 38.453-22.199 7.9297-13.738 7.9297-30.664 0-44.398-7.9336-13.738-22.59-22.199-38.453-22.199zm0 69.062h-246.66c-8.8125 0-16.953-4.6992-21.359-12.332-4.4062-7.6328-4.4062-17.035 0-24.664 4.4062-7.6328 12.547-12.336 21.359-12.336h246.66c8.8125 0 16.957 4.7031 21.363 12.336 4.4062 7.6289 4.4062 17.031 0 24.664-4.4062 7.6328-12.551 12.332-21.363 12.332z"/>
 </g>
</svg>
