<?xml version="1.0" encoding="UTF-8"?>
<svg width="752pt" height="752pt" version="1.1" viewBox="0 0 752 752" xmlns="http://www.w3.org/2000/svg">
 <path d="m297.39 380.26 152.49 88.086c0.94531 0.47266 1.4219 0.47266 2.3672 0.47266h0.94531 1.4219c0.94531 0 2.3672-0.47266 3.3164-1.4219 1.4219-1.4219 1.8945-3.3164 1.4219-5.2109l-37.887-86.188 37.414-86.191c0.94531-1.8945 0.47266-4.2617-1.4219-5.2109-0.94531-0.94531-2.8398-1.4219-4.2617-0.94531-0.94531 0-2.3672 0-3.3164 0.47266l-152.49 87.613c-1.4219 0.94531-2.3672 2.3672-2.3672 4.2617s0.94531 3.3164 2.3672 4.2617zm13.734-4.2617 130.23-75.301-31.73 73.406c-0.47266 1.4219-0.47266 2.3672 0 3.7891l31.73 73.406z"/>
</svg>
