<?xml version="1.0" encoding="UTF-8"?>
<svg width="752pt" height="752pt" version="1.1" viewBox="0 0 752 752" xmlns="http://www.w3.org/2000/svg">
 <path d="m296.44 467.4c0.94531 0.94531 1.8945 1.4219 3.3164 1.4219 0.94531 0 1.4219 0 2.3672-0.47266l152.49-88.086c1.4219-0.94531 2.3672-2.3672 2.3672-4.2617 0-1.8945-0.94531-3.3164-2.3672-4.2617l-152.5-87.617c-1.8945-0.94531-3.7891-0.94531-5.6836 0.47266-1.4219 1.4219-1.8945 3.3164-1.4219 5.2109l37.418 86.191-36.941 86.191c-0.94531 1.8945-0.47266 3.7891 0.94922 5.2109zm45.461-89.508c0.47266-1.4219 0.47266-2.3672 0-3.7891l-32.203-74.824 133.08 76.719-133.08 76.723z"/>
</svg>
