<?xml version="1.0" encoding="UTF-8"?>
<svg width="752pt" height="752pt" version="1.1" viewBox="0 0 752 752" xmlns="http://www.w3.org/2000/svg">
 <path d="m375.93 162.89c-117.54 0-213.04 95.559-213.04 213.18s95.492 213.04 213.04 213.04 213.18-95.41 213.18-213.04c0.54688-118.55-95.027-213.27-213.18-213.18zm0 18.801c11.094 0 21.965 1.0234 32.547 2.8125-6.0625 6.0039-11.52 12.629-16.719 20.43-1.9258 2.832-2.1406 6.7383-0.53516 9.7656 1.6016 3.0273 4.9531 5.043 8.3789 5.0391 14.051 0 19.996 3.0312 22.191 5.3281 5.0859 9.8398 0.027344 20.859-2.6641 30.645-2.2305 7.8711-2.8047 17.551 2.2188 22.797 3.7383 3.7422 8.4844 4.2578 11.984 3.9961-2.4102 1.8789-4.418 3.2891-7.25 5.625-10.602 8.7383-23.336 20.934-26.332 38.934-0.28516 12.16 0.03125 26.453 5.7695 35.531 5.4492 8.2891 14.293 11.914 22.043 13.324 14.945 2.7188 28.105 1.5625 36.098 7.1055 7.207 9.5586 12.078 25.5 16.719 41.75 4.7656 16.695 8.9805 33.98 22.488 44.117 5.1055 3.8008 13.715 0.47266 14.941-5.7734 2.0352-10.176 5.5273-15.371 10.652-22.207 14.227-16.98 19.164-36.477 32.398-54.48 2.8164-3.7695 5.875-6.9141 9.1719-9.4766-0.47656 106.98-87.086 193.35-194.1 193.35-107.31 0-194.1-86.848-194.1-194.23 0-13.844 1.5508-27.242 4.2891-40.27 9.8594 6.1875 12.637 19.129 14.941 28.277 0.41406 1.6719 1.293 3.2266 2.5156 4.4414 22.332 22.348 30.328 42.816 30.328 69.137 0.007812 2.1992 0.80469 4.3867 2.2188 6.0703 12.762 15.324 27.98 27.035 39.5 41.305 11.52 14.27 19.824 30.531 19.824 56.848 0.050782 3.918 2.7891 7.6602 6.5078 8.8828l14.203 4.7383c4.2578 1.3906 9.375-0.73828 11.391-4.7383 4.418-38.754 21.781-60.934 42.754-82.906 12.551-13.156 24.559-27.676 24.559-53.887 0-4.1641-3.0703-8.1367-7.1016-9.1797-15.336-3.8359-29.16-18.375-48.82-28.867-18.199-9.7148-42.648-12.602-73.973 2.8125-3.3047-4.2227-2.6602-11.523-2.6641-16.879 0.050781-3.1289-1.5586-6.2344-4.1406-7.9961-6.2031-4.1367-10.262-7.8008-12.723-11.398 4.2148 1.2109 9.1406-0.95703 11.094-4.8867 10.535-21.09 30.168-35.5 49.855-47.672 19.691-12.168 39.488-20.559 49.266-36.863 4.043-13.406 0.31641-29.191-4.1406-39.973-3.8828-9.2266-9.1523-18.336-14.5-27.387 12.555-2.5547 25.594-3.9961 38.91-3.9961zm55.477 8.1406c73.863 22.055 129.2 86.855 137.44 165.81-9.7578 4.4297-17.262 11.613-23.078 19.395-12.258 17.805-20.246 38.316-32.398 54.48-2.5078 3.3477-5.0664 7.2617-7.3984 11.547-2.5742-5.918-4.9336-13.352-7.25-21.469-6.5977-19.316-11.441-37.477-22.191-50.926-15.801-12.652-35.18-9.4844-45.715-11.398-5.2656-0.95703-7.668-2.2188-9.6172-5.1797-1.918-2.918-3.6523-9.4805-2.6641-22.207 1.8555-10.289 10.254-19.328 19.676-27.094 7.0664-5.582 13.789-10.719 19.379-16.73 4.3047-6.3984 3.5508-11.172 3.5508-18.949 0-4.9609-4.5117-9.4727-9.4688-9.4766-5.4648 0.26562-9.957 2.6758-14.645 4.5898 5.0234-18.688 8.5703-38.426-1.4805-50.336-4.3242-4.5273-10.648-7.1172-18.051-8.8828 4.1523-4.6875 8.6328-9.0156 13.906-13.176zm-113.47 0.73828c6.25 10.449 12.262 20.578 16.125 29.758 4.0273 9.5742 5.3555 17.586 4.2891 23.836-5.1523 7.3359-22.156 17.336-42.016 29.609-17.965 11.105-37.398 25.453-50.891 46.34l-6.2148-4.1445c-5.043-3.4023-13.066-0.28906-14.5 5.625-2.8164 11.277-1.3906 21.766 3.4023 29.758 3.9609 6.6094 9.6328 11.238 15.684 15.543-0.1875 12.316 4.5273 26.707 14.203 31.828 2.8047 1.4062 6.3164 1.2891 9.0234-0.29297 31.18-17.828 47.18-14.23 63.023-5.7734 13.883 7.4102 27.113 20.523 45.27 27.535-1.4023 16.023-7.7539 23.082-18.641 34.496-19.117 21.969-40.031 44.629-43.496 74.465-2.5586-23.789-11.438-42.055-22.781-56.109-12.691-15.727-27.234-27.156-38.02-39.527-0.94141-27.918-11.219-53.004-33.582-76.242-4.2227-17.492-12.188-33.262-27.812-40.121 19.094-60.215 66.695-107.69 126.93-126.58z" fill="#fff"/>
</svg>
